<svg width="504" height="500" viewBox="0 0 504 500" fill="none" xmlns="http://www.w3.org/2000/svg">
<rect width="504" height="500" fill="#FF5058"/>
<path d="M244.833 130.011L150 130L149.995 173.617C149.995 173.617 218.841 136.738 224.186 149.828C229.531 162.917 194.18 180.464 194.18 180.464C194.18 180.464 247.318 158.569 251.141 170.654C254.964 182.739 207.47 205.155 207.47 205.155C207.47 205.155 273.456 179.358 277.167 193.302C280.879 207.283 215.488 232.226 215.488 232.226C215.488 232.226 266.471 215.834 269.402 230.001C271.184 238.517 210.062 270.525 183.475 280.487C183.066 285.544 187.293 333.214 171.698 331.427C164.495 330.571 156.513 320.791 150.016 310.49L150.009 370.84L212.092 370.847L212.1 304.92L244.85 304.924C320.226 304.933 353.685 279.652 353.692 217.815C353.699 155.978 320.21 130.02 244.833 130.011Z" fill="black"/>
</svg>
