<svg width="787" height="747" viewBox="0 0 787 747" fill="none" xmlns="http://www.w3.org/2000/svg">
<path d="M590.723 132.213C643.666 184.891 687.969 245.451 721.428 312.211C735.693 340.665 718.644 378.276 683.851 377.638C541.781 374.799 409.626 307.575 267.556 309.777L305.132 244.349C360.337 345.997 424.065 442.776 496.782 532.775C524.037 566.503 498.986 614.313 454.451 605.446C433.459 601.273 412.41 597.043 391.418 592.871C376.399 589.857 345.956 589.509 333.662 581.338C321.369 580.411 325.08 574.674 344.738 564.184L344.448 574.442C346.13 583.656 344.738 594.261 345.956 603.707C348.623 623.991 355.292 643.694 362.888 662.586C371.702 684.55 353.262 710.107 332.502 716.076C307.799 723.146 287.736 707.383 278.979 685.709C259.727 637.899 234.039 541.004 286.17 504.958C312.554 486.703 343.462 494.874 372.514 500.669C407.539 507.682 442.564 514.636 477.588 521.648L435.257 594.319C357.785 498.467 288.837 396.588 229.98 288.277C214.207 259.243 233.923 223.371 267.556 222.849C410.322 220.647 542.071 287.929 683.851 290.711L646.275 356.138C615.89 295.579 577.212 241.568 529.198 193.758C489.476 154.235 550.943 92.748 590.723 132.271V132.213Z" fill="#D9CFF1"/>
<path d="M537.908 678.858L528.067 525.94C528.067 525.94 493.364 433.028 518.692 428.831C544.02 424.608 560.905 494.512 560.905 494.512L560.672 496.377L562.795 495.548C562.795 495.548 566.576 474.069 580.146 468.369C593.613 462.721 605.034 470.83 612.544 483.759L610.99 479.64C610.99 479.64 617.62 458.86 631.838 455.051C646.159 451.191 656.466 461.114 662.112 475.261C660.584 455.699 656.259 380.587 679.1 381.002C704.091 381.442 719.138 543.429 720.536 559.078H720.64C727.218 552.653 763.526 487.05 782.742 508.166C801.984 529.282 738.328 678.91 738.328 678.91" fill="black"/>
<path d="M681.742 483.656C681.742 483.656 681.561 483.656 681.457 483.656C673.455 482.645 663.692 482.127 663.588 482.127C662.345 482.049 661.387 481.013 661.464 479.769C661.542 478.526 662.604 477.593 663.821 477.645C663.925 477.645 673.843 478.189 682.001 479.199C683.244 479.355 684.099 480.469 683.943 481.712C683.788 482.852 682.83 483.682 681.716 483.682L681.742 483.656Z" fill="#FF5058"/>
<path d="M647.506 619.811C647.35 619.811 647.169 619.811 647.014 619.759C645.796 619.5 645.045 618.282 645.304 617.064C658.512 557.576 715.409 556.772 715.978 556.772H720.588C721.831 556.772 722.841 557.783 722.841 559.027C722.841 560.27 721.831 561.281 720.588 561.281H715.978C713.803 561.281 662.112 562.136 649.681 618.023C649.448 619.059 648.516 619.785 647.48 619.785L647.506 619.811Z" fill="#FF5058"/>
<path d="M546.065 504.305C545.159 504.305 544.304 503.761 543.968 502.88C543.527 501.714 544.097 500.419 545.237 499.979L561.94 493.475C563.106 493.009 564.401 493.605 564.841 494.745C565.281 495.911 564.712 497.206 563.572 497.647L546.868 504.15C546.609 504.254 546.324 504.305 546.065 504.305Z" fill="#FF5058"/>
<path d="M605.267 549.518C604.775 549.518 604.283 549.518 603.791 549.44C591.231 548.196 580.146 531.821 577.065 526.821C576.417 525.759 576.728 524.385 577.79 523.738C578.852 523.09 580.224 523.401 580.898 524.463C586.44 533.402 595.892 544.154 604.257 544.958C607.675 545.268 610.731 543.973 613.554 540.942C623.162 530.63 620.935 510.938 615.652 495.937C611.974 485.495 606.899 477.8 600.554 473.007C599.57 472.255 599.362 470.856 600.113 469.846C600.864 468.861 602.263 468.654 603.273 469.405C610.317 474.717 615.911 483.137 619.899 494.408C625.622 510.627 627.824 532.184 616.843 543.973C613.451 547.626 609.566 549.466 605.319 549.466L605.267 549.518Z" fill="#FF5058"/>
<path d="M649.81 539.18C649.603 539.18 649.396 539.18 649.188 539.18C637.172 538.584 624.845 521.535 620.908 512.545C620.416 511.405 620.908 510.083 622.074 509.591C623.213 509.099 624.534 509.591 625.026 510.757C628.574 518.867 640.073 534.257 649.396 534.697C653.021 534.853 655.999 532.728 658.563 528.168C667.498 512.156 667.472 490.573 658.46 473.136C657.89 472.022 658.33 470.675 659.418 470.105C660.531 469.535 661.878 469.975 662.448 471.063C672.133 489.796 672.134 513.089 662.474 530.37C658.46 537.573 653.461 539.206 649.784 539.206L649.81 539.18Z" fill="#FF5058"/>
<path d="M513.072 679.014H759.227L739.83 746.146L531.252 745.187L513.072 679.014Z" fill="#FF5058"/>
<path d="M214.503 355.497C226.978 358.667 330.482 413.701 349.782 396.136C363.704 383.453 336.345 362.638 317.851 349.77C306.366 341.788 304.009 325.385 313.278 314.912C325.289 301.344 347.405 293.635 376.369 293.235C413.827 292.73 444.516 326.993 463.692 307.853C468.999 302.546 462.874 289.203 449.884 276.637L451.122 277.558C453.383 261.563 450.178 249.831 443.948 241.266L447.735 242.399C448.815 173.358 360.457 194.004 360.457 194.004C360.457 194.004 425.12 158.047 409.793 140.279C396.518 124.882 333.449 163.387 333.449 163.387L214.46 172.33" fill="black"/>
<path d="M220 148L220 394L123 374.615L124.385 166.169L220 148Z" fill="#FF5058"/>
<path d="M454.202 280.991C454.981 280.212 455.016 278.938 454.237 278.124C432.628 255.206 402.244 243.963 374.962 248.769C373.847 248.964 373.104 250.025 373.299 251.14C373.494 252.254 374.556 252.998 375.67 252.804C401.202 248.298 430.877 259.328 451.23 280.919C452.009 281.733 453.3 281.787 454.149 281.008L454.185 280.973L454.202 280.991Z" fill="#FF5058"/>
<path d="M446.779 244.735C447.434 244.08 447.575 243.054 447.097 242.222C432.034 217.111 400.698 216.838 375.52 216.638C373.839 216.62 372.193 216.602 370.583 216.583C369.45 216.583 368.513 217.485 368.513 218.618C368.513 219.75 369.416 220.688 370.548 220.688C372.176 220.724 373.84 220.725 375.52 220.743C400.947 220.943 429.735 221.18 443.612 244.327C444.196 245.3 445.47 245.619 446.443 245.035C446.602 244.947 446.709 244.841 446.832 244.717L446.779 244.735Z" fill="#FF5058"/>
</svg>
