<svg width="209" height="293" viewBox="0 0 209 293" fill="none" xmlns="http://www.w3.org/2000/svg">
<path d="M56.2569 50.0721C34.3169 71.9258 15.9574 97.0492 2.09171 124.745C-3.81985 136.549 3.24517 152.152 17.6636 151.888C76.5388 150.71 131.305 122.822 190.18 123.735L174.608 96.5924C151.731 138.761 125.321 178.91 95.1867 216.247C83.8922 230.239 94.2735 250.073 112.729 246.395C121.428 244.664 130.151 242.909 138.85 241.178C145.074 239.928 157.691 239.784 162.785 236.394C167.88 236.009 166.342 233.629 158.195 229.277L158.315 233.533C157.618 237.355 158.195 241.755 157.691 245.674C156.585 254.088 153.822 262.262 150.674 270.1C147.021 279.212 154.663 289.814 163.266 292.29C173.503 295.223 181.817 288.684 185.446 279.692C193.424 259.858 204.07 219.661 182.466 204.707C171.532 197.134 158.724 200.524 146.684 202.928C132.17 205.837 117.655 208.722 103.141 211.631L120.683 241.779C152.788 202.014 181.361 159.749 205.752 114.816C212.288 102.771 204.118 87.8894 190.18 87.673C131.016 86.7594 76.4187 114.672 17.6636 115.826L33.2355 142.968C45.8276 117.845 61.8561 95.4384 81.7535 75.6042C98.2145 59.2079 72.742 33.6999 56.2569 50.0962V50.0721Z" fill="#D9CFF1"/>
<g filter="url(#filter0_d_3479_1235)">
<path d="M32.2932 30C32.2932 25.5817 35.8749 22 40.2932 22H152.279C156.698 22 160.279 25.5817 160.279 30V256.341C160.279 260.759 156.698 264.341 152.279 264.341H40.2932C35.8749 264.341 32.2932 260.759 32.2932 256.341V30Z" fill="white"/>
</g>
<rect x="41.0613" y="47.5488" width="13.6869" height="4.56229" rx="2.28114" fill="#F4F2F9"/>
<path d="M32.2932 30C32.2932 25.5817 35.8749 22 40.2932 22H152.279C156.698 22 160.279 25.5817 160.279 30V37.9036H32.2932V30Z" fill="#EDE9F8"/>
<circle cx="41.3808" cy="30.3304" r="1.51463" fill="#E71312"/>
<circle cx="46.428" cy="30.3304" r="1.51463" fill="#FF9E05"/>
<circle cx="51.4797" cy="30.3304" r="1.51463" fill="#00D648"/>
<path d="M160.279 256.341C160.279 260.759 156.698 264.341 152.279 264.341L40.2932 264.341C35.8749 264.341 32.2932 260.759 32.2932 256.341L32.2932 236.32L160.279 236.32L160.279 256.341Z" fill="#EDE9F8"/>
<circle cx="53.4973" cy="251.466" r="3.78657" fill="#D9CFF1"/>
<circle cx="81.5183" cy="251.466" r="3.78657" fill="#D9CFF1"/>
<circle cx="109.539" cy="251.466" r="3.78657" fill="#D9CFF1"/>
<circle cx="137.56" cy="251.466" r="3.78657" fill="#D9CFF1"/>
<rect x="41.9731" y="123.283" width="38.623" height="37.1084" rx="8" fill="#6A11CD"/>
<g clip-path="url(#clip0_3479_1235)">
<path d="M68.7387 142.444V150.809H55.356V142.444" stroke="white" stroke-width="2" stroke-linecap="round" stroke-linejoin="round"/>
<path d="M70.4115 138.262H53.6831V142.444H70.4115V138.262Z" stroke="white" stroke-width="2" stroke-linecap="round" stroke-linejoin="round"/>
<path d="M62.0474 150.809V138.262" stroke="white" stroke-width="2" stroke-linecap="round" stroke-linejoin="round"/>
<path d="M62.0473 138.262H58.2834C57.7289 138.262 57.197 138.042 56.8048 137.65C56.4127 137.258 56.1924 136.726 56.1924 136.171C56.1924 135.617 56.4127 135.085 56.8048 134.693C57.197 134.301 57.7289 134.08 58.2834 134.08C61.2109 134.08 62.0473 138.262 62.0473 138.262Z" stroke="white" stroke-width="2" stroke-linecap="round" stroke-linejoin="round"/>
<path d="M62.0474 138.262H65.8113C66.3658 138.262 66.8977 138.042 67.2898 137.65C67.682 137.258 67.9023 136.726 67.9023 136.171C67.9023 135.617 67.682 135.085 67.2898 134.693C66.8977 134.301 66.3658 134.08 65.8113 134.08C62.8838 134.08 62.0474 138.262 62.0474 138.262Z" stroke="white" stroke-width="2" stroke-linecap="round" stroke-linejoin="round"/>
</g>
<rect x="41.3784" y="175.735" width="38.623" height="37.1084" rx="8" fill="#F4F2F9"/>
<rect x="83.7891" y="123.48" width="38.623" height="37.1084" rx="8" fill="#F4F2F9"/>
<rect x="83.7891" y="175.735" width="38.623" height="37.1084" rx="8" fill="#F4F2F9"/>
<rect x="70.156" y="54.5645" width="52.2547" height="51.4974" rx="8" fill="#F4F2F9"/>
<rect x="126.198" y="123.48" width="38.623" height="37.1084" rx="8" fill="#F4F2F9"/>
<rect x="126.198" y="175.735" width="38.623" height="37.1084" rx="8" fill="#F4F2F9"/>
<circle cx="149.675" cy="49.2631" r="5.3012" fill="#F4F2F9"/>
<rect x="41.3784" y="167.404" width="33.3218" height="4.54389" rx="2.27194" fill="#F4F2F9"/>
<rect x="41.3784" y="115.15" width="33.3218" height="4.54389" rx="2.27194" fill="#F4F2F9"/>
<defs>
<filter id="filter0_d_3479_1235" x="12.2932" y="0" width="167.986" height="282.341" filterUnits="userSpaceOnUse" color-interpolation-filters="sRGB">
<feFlood flood-opacity="0" result="BackgroundImageFix"/>
<feColorMatrix in="SourceAlpha" type="matrix" values="0 0 0 0 0 0 0 0 0 0 0 0 0 0 0 0 0 0 127 0" result="hardAlpha"/>
<feOffset dy="-2"/>
<feGaussianBlur stdDeviation="10"/>
<feComposite in2="hardAlpha" operator="out"/>
<feColorMatrix type="matrix" values="0 0 0 0 0 0 0 0 0 0 0 0 0 0 0 0 0 0 0.07 0"/>
<feBlend mode="normal" in2="BackgroundImageFix" result="effect1_dropShadow_3479_1235"/>
<feBlend mode="normal" in="SourceGraphic" in2="effect1_dropShadow_3479_1235" result="shape"/>
</filter>
<clipPath id="clip0_3479_1235">
<rect width="20.0741" height="20.0741" fill="white" transform="translate(52.0103 132.407)"/>
</clipPath>
</defs>
</svg>
