<svg width="30" height="30" viewBox="0 0 30 30" fill="none" xmlns="http://www.w3.org/2000/svg">
<path d="M0.500244 14.74C0.500244 6.59932 7.09957 0 15.2402 0C23.3809 0 29.9802 6.59932 29.9802 14.74C29.9802 22.8807 23.3809 29.48 15.2402 29.48C7.09957 29.48 0.500244 22.8807 0.500244 14.74Z" fill="black"/>
<path fill-rule="evenodd" clip-rule="evenodd" d="M14.9788 8.29535C14.8199 8.29527 14.6726 8.29521 14.5356 8.29542V8.29346C13.0705 8.29509 12.7894 8.30492 12.0642 8.33768C11.2977 8.37289 10.8815 8.50064 10.6044 8.60873C10.2376 8.75155 9.97552 8.92188 9.70037 9.19703C9.42522 9.47218 9.25456 9.73423 9.11207 10.1011C9.00447 10.3782 8.87639 10.7942 8.84135 11.5607C8.80368 12.3894 8.79614 12.6371 8.79614 14.7364C8.79614 16.8357 8.80368 17.0846 8.84135 17.9134C8.87623 18.6799 9.00447 19.0959 9.11207 19.3726C9.25489 19.7397 9.42522 20.0011 9.70037 20.2762C9.97552 20.5514 10.2376 20.7217 10.6044 20.8642C10.8817 20.9718 11.2977 21.0999 12.0642 21.1352C12.8929 21.1729 13.1417 21.1811 15.2409 21.1811C17.3399 21.1811 17.5888 21.1729 18.4175 21.1352C19.184 21.1002 19.6003 20.9724 19.8771 20.8644C20.2442 20.7219 20.5054 20.5515 20.7805 20.2764C21.0557 20.0014 21.2263 19.7402 21.3688 19.3733C21.4764 19.0965 21.6045 18.6805 21.6396 17.914C21.6772 17.0853 21.6854 16.8364 21.6854 14.7383C21.6854 12.6403 21.6772 12.3914 21.6396 11.5627C21.6047 10.7962 21.4764 10.3802 21.3688 10.1034C21.226 9.73652 21.0557 9.47447 20.7805 9.19932C20.5056 8.92417 20.244 8.75384 19.8771 8.61135C19.6 8.50375 19.184 8.37567 18.4175 8.34063C17.5886 8.30296 17.3399 8.29542 15.2409 8.29542L14.9788 8.29535ZM18.4939 10.5438C18.4939 10.0228 18.9164 9.60073 19.4372 9.60073V9.6004C19.9581 9.6004 20.3806 10.0229 20.3806 10.5438C20.3806 11.0646 19.9581 11.4871 19.4372 11.4871C18.9164 11.4871 18.4939 11.0646 18.4939 10.5438ZM15.2407 10.703C13.0113 10.7031 11.2037 12.5107 11.2037 14.7401C11.2037 16.9697 13.0114 18.7765 15.2409 18.7765C17.4704 18.7765 19.2774 16.9697 19.2774 14.7401C19.2774 12.5106 17.4703 10.703 15.2407 10.703ZM18.0039 14.7401C18.0039 13.2136 16.7664 11.9763 15.2402 11.9763C13.7137 11.9763 12.4764 13.2136 12.4764 14.7401C12.4764 16.2663 13.7137 17.5038 15.2402 17.5038C16.7664 17.5038 18.0039 16.2663 18.0039 14.7401Z" fill="#E6FF45"/>
</svg>
