<svg width="30" height="30" viewBox="0 0 30 30" fill="none" xmlns="http://www.w3.org/2000/svg">
<path d="M0.5 14.74C0.5 6.59932 7.09932 0 15.24 0C23.3807 0 29.98 6.59932 29.98 14.74C29.98 22.8807 23.3807 29.48 15.24 29.48C7.09932 29.48 0.5 22.8807 0.5 14.74Z" fill="#EDE9F8"/>
<path fill-rule="evenodd" clip-rule="evenodd" d="M14.5354 8.2953C14.6723 8.29509 14.8196 8.29515 14.9786 8.29522L15.2406 8.2953C17.3396 8.2953 17.5884 8.30283 18.4173 8.3405C19.1838 8.37555 19.5998 8.50363 19.8769 8.61123C20.2438 8.75372 20.5053 8.92405 20.7803 9.1992C21.0554 9.47435 21.2258 9.7364 21.3686 10.1033C21.4762 10.38 21.6044 10.796 21.6393 11.5625C21.677 12.3913 21.6852 12.6402 21.6852 14.7382C21.6852 16.8362 21.677 17.0852 21.6393 17.9139C21.6043 18.6804 21.4762 19.0964 21.3686 19.3732C21.2261 19.74 21.0554 20.0013 20.7803 20.2763C20.5051 20.5514 20.2439 20.7217 19.8769 20.8642C19.6001 20.9723 19.1838 21.1001 18.4173 21.1351C17.5886 21.1728 17.3396 21.181 15.2406 21.181C13.1415 21.181 12.8927 21.1728 12.064 21.1351C11.2975 21.0997 10.8815 20.9717 10.6042 20.8641C10.2373 20.7216 9.97527 20.5512 9.70012 20.2761C9.42498 20.0009 9.25464 19.7396 9.11183 19.3725C9.00423 19.0957 8.87599 18.6797 8.8411 17.9132C8.80343 17.0845 8.7959 16.8356 8.7959 14.7363C8.7959 12.6369 8.80343 12.3893 8.8411 11.5606C8.87615 10.7941 9.00423 10.3781 9.11183 10.101C9.25432 9.7341 9.42498 9.47206 9.70012 9.19691C9.97527 8.92176 10.2373 8.75143 10.6042 8.60861C10.8813 8.50052 11.2975 8.37277 12.064 8.33756C12.7892 8.3048 13.0702 8.29497 14.5354 8.29333V8.2953ZM19.437 9.6006C18.9162 9.6006 18.4936 10.0227 18.4936 10.5436C18.4936 11.0645 18.9162 11.487 19.437 11.487C19.9578 11.487 20.3804 11.0645 20.3804 10.5436C20.3804 10.0228 19.9578 9.60028 19.437 9.60028V9.6006ZM11.2035 14.74C11.2035 12.5106 13.011 10.703 15.2405 10.7029C17.47 10.7029 19.2772 12.5105 19.2772 14.74C19.2772 16.9696 17.4702 18.7764 15.2406 18.7764C13.0111 18.7764 11.2035 16.9696 11.2035 14.74Z" fill="#6A11CD"/>
<path d="M15.2398 11.9763C16.7661 11.9763 18.0036 13.2136 18.0036 14.74C18.0036 16.2663 16.7661 17.5038 15.2398 17.5038C13.7134 17.5038 12.4761 16.2663 12.4761 14.74C12.4761 13.2136 13.7134 11.9763 15.2398 11.9763Z" fill="#6A11CD"/>
</svg>
