<svg width="31" height="31" viewBox="0 0 31 31" fill="none" xmlns="http://www.w3.org/2000/svg">
<path d="M1.00024 15.74C1.00024 7.87547 7.37571 1.5 15.2402 1.5V0.5C6.82342 0.5 0.000244141 7.32318 0.000244141 15.74H1.00024ZM15.2402 1.5C23.1048 1.5 29.4802 7.87547 29.4802 15.74H30.4802C30.4802 7.32318 23.6571 0.5 15.2402 0.5V1.5ZM29.4802 15.74C29.4802 23.6045 23.1048 29.98 15.2402 29.98V30.98C23.6571 30.98 30.4802 24.1568 30.4802 15.74H29.4802ZM15.2402 29.98C7.37571 29.98 1.00024 23.6045 1.00024 15.74H0.000244141C0.000244141 24.1568 6.82342 30.98 15.2402 30.98V29.98Z" fill="white"/>
<path fill-rule="evenodd" clip-rule="evenodd" d="M14.5356 9.29542C14.6726 9.29521 14.8199 9.29527 14.9788 9.29535L15.2409 9.29542C17.3399 9.29542 17.5886 9.30296 18.4175 9.34063C19.184 9.37567 19.6 9.50375 19.8771 9.61135C20.244 9.75384 20.5056 9.92417 20.7805 10.1993C21.0557 10.4745 21.226 10.7365 21.3688 11.1034C21.4764 11.3802 21.6047 11.7962 21.6396 12.5627C21.6772 13.3914 21.6854 13.6403 21.6854 15.7383C21.6854 17.8364 21.6772 18.0853 21.6396 18.914C21.6045 19.6805 21.4764 20.0965 21.3688 20.3733C21.2263 20.7402 21.0557 21.0014 20.7805 21.2764C20.5054 21.5515 20.2442 21.7219 19.8771 21.8644C19.6003 21.9724 19.184 22.1002 18.4175 22.1352C17.5888 22.1729 17.3399 22.1811 15.2409 22.1811C13.1417 22.1811 12.8929 22.1729 12.0642 22.1352C11.2977 22.0999 10.8817 21.9718 10.6044 21.8642C10.2376 21.7217 9.97552 21.5514 9.70037 21.2762C9.42522 21.0011 9.25489 20.7397 9.11207 20.3726C9.00447 20.0959 8.87623 19.6799 8.84135 18.9134C8.80368 18.0846 8.79614 17.8357 8.79614 15.7364C8.79614 13.6371 8.80368 13.3894 8.84135 12.5607C8.87639 11.7942 9.00447 11.3782 9.11207 11.1011C9.25456 10.7342 9.42522 10.4722 9.70037 10.197C9.97552 9.92188 10.2376 9.75155 10.6044 9.60873C10.8815 9.50064 11.2977 9.37289 12.0642 9.33768C12.7894 9.30492 13.0705 9.29509 14.5356 9.29346V9.29542ZM19.4372 10.6007C18.9164 10.6007 18.4939 11.0228 18.4939 11.5438C18.4939 12.0646 18.9164 12.4871 19.4372 12.4871C19.9581 12.4871 20.3806 12.0646 20.3806 11.5438C20.3806 11.0229 19.9581 10.6004 19.4372 10.6004V10.6007ZM11.2037 15.7401C11.2037 13.5107 13.0113 11.7031 15.2407 11.703C17.4703 11.703 19.2774 13.5106 19.2774 15.7401C19.2774 17.9697 17.4704 19.7765 15.2409 19.7765C13.0114 19.7765 11.2037 17.9697 11.2037 15.7401Z" fill="white"/>
<path d="M15.2403 12.9761C16.7666 12.9761 18.0041 14.2134 18.0041 15.7398C18.0041 17.2661 16.7666 18.5036 15.2403 18.5036C13.7139 18.5036 12.4766 17.2661 12.4766 15.7398C12.4766 14.2134 13.7139 12.9761 15.2403 12.9761Z" fill="white"/>
</svg>
