<svg width="24" height="24" viewBox="0 0 24 24" fill="none" xmlns="http://www.w3.org/2000/svg">
<path d="M9.83342 18.1302V20.6667C9.83342 21.8633 10.8035 22.8334 12.0001 22.8334C13.1967 22.8334 14.1667 21.8633 14.1667 20.6667V18.1302M12.0001 1.16669V2.25002M2.25008 12H1.16675M4.95841 4.95835L4.30831 4.30825M19.0417 4.95835L19.692 4.30825M22.8334 12H21.7501M18.5001 12C18.5001 15.5899 15.5899 18.5 12.0001 18.5C8.41023 18.5 5.50008 15.5899 5.50008 12C5.50008 8.41017 8.41023 5.50002 12.0001 5.50002C15.5899 5.50002 18.5001 8.41017 18.5001 12Z" stroke="#6A11CD" stroke-width="2" stroke-linecap="round" stroke-linejoin="round"/>
</svg>
