<svg width="104" height="32" viewBox="0 0 104 32" fill="none" xmlns="http://www.w3.org/2000/svg">
<g clip-path="url(#clip0_3807_50425)">
<path d="M40.6059 17.9932H28.4117C28.9256 19.3781 30.1428 20.1043 31.9431 20.1043C33.5467 20.1043 34.4468 19.6776 35.6021 18.7867L39.3886 22.7095C37.6867 24.6223 35.2158 25.6105 31.7208 25.6105C25.2703 25.6105 21.1011 21.624 21.1011 16.2489C21.1011 10.8738 25.3687 6.92102 31.0503 6.92102C36.2472 6.92102 40.7079 10.1513 40.7079 16.2489C40.7079 16.7767 40.6423 17.4692 40.6131 17.9969L40.6059 17.9932ZM28.2842 14.3998H33.933C33.6451 12.8838 32.5846 11.993 31.1086 11.993C29.6326 11.993 28.5721 12.8838 28.2842 14.3998Z" fill="black"/>
<path d="M62.5852 7.25038V21.6839C62.5852 28.6723 58.6055 31.9999 51.8998 31.9999C48.434 31.9999 45.2889 31.2401 43.1059 29.7578L45.544 24.6821C46.9252 25.7714 49.265 26.4601 51.16 26.4601C54.1448 26.4601 55.3329 25.1088 55.3329 22.702V22.3726C54.2432 23.6565 52.636 24.2854 50.4858 24.2854C46.0251 24.2854 42.0454 20.924 42.0454 15.5863C42.0454 10.2486 46.0251 6.91724 50.4858 6.91724C52.8911 6.91724 54.593 7.67709 55.6827 9.29038V7.24663H62.5816L62.5852 7.25038ZM55.3985 15.5901C55.3985 13.842 54.1156 12.7228 52.4137 12.7228C50.7118 12.7228 49.3961 13.842 49.3961 15.5901C49.3961 17.3381 50.7118 18.491 52.4137 18.491C54.1156 18.491 55.3985 17.3381 55.3985 15.5901Z" fill="black"/>
<path d="M82.6001 15.5901V25.2811H75.8616V22.9079C75.0271 24.7196 73.3579 25.6105 70.887 25.6105C66.5867 25.6105 64.3745 23.1063 64.3745 20.007C64.3745 16.5147 66.9402 14.5682 72.3958 14.5682H75.315C75.089 13.1833 74.0649 12.4571 72.0095 12.4571C70.4388 12.4571 68.6712 12.9849 67.516 13.8758L65.2054 8.96477C67.2609 7.64719 70.3732 6.92102 73.0992 6.92102C79.1307 6.92102 82.5965 9.58987 82.5965 15.5901H82.6001ZM75.3478 19.4118V18.1579H73.5511C72.0095 18.1579 71.3353 18.6857 71.3353 19.6739C71.3353 20.4973 71.9767 21.1224 73.0664 21.1224C74.0613 21.1224 74.9615 20.5947 75.3441 19.4081L75.3478 19.4118Z" fill="black"/>
<path d="M103.905 17.9932H91.711C92.2249 19.3781 93.4421 20.1043 95.2425 20.1043C96.846 20.1043 97.7462 19.6776 98.9014 18.7867L102.688 22.7095C100.986 24.6223 98.5151 25.6104 95.0202 25.6104C88.5696 25.6104 84.4004 21.624 84.4004 16.2489C84.4004 10.8737 88.668 6.921 94.3496 6.921C99.5465 6.921 104.007 10.1513 104.007 16.2489C104.007 16.7767 103.942 17.4691 103.912 17.9969L103.905 17.9932ZM91.5179 5.27028H87.0244L91.1316 -0.00378418H97.2943L101.401 5.27028H96.9079L94.2111 2.73244L91.5142 5.27028H91.5179ZM91.5835 14.3998H97.2323C96.9444 12.8838 95.8839 11.9929 94.4079 11.9929C92.9319 11.9929 91.8714 12.8838 91.5835 14.3998Z" fill="black"/>
<path d="M9.30777 1.87903H0V6.26972C0 6.26972 6.7567 2.55653 7.28149 3.87412C7.80629 5.1917 4.33683 6.95845 4.33683 6.95845C4.33683 6.95845 9.55195 4.75375 9.92732 5.97027C10.3027 7.18678 5.64152 9.44389 5.64152 9.44389C5.64152 9.44389 12.1176 6.84616 12.482 8.24983C12.8465 9.65725 6.42871 12.1689 6.42871 12.1689C6.42871 12.1689 11.4325 10.5182 11.7204 11.9443C11.8953 12.8015 5.89662 16.0243 3.28724 17.0275C3.24715 17.5365 3.66261 22.3352 2.13197 22.1556C1.42496 22.0695 0.641413 21.085 0.00364439 20.0482V26.1233H6.09707V19.4867H9.31142C16.7095 19.4867 19.9931 16.9414 19.9931 10.7166C19.9931 4.49173 16.7059 1.87903 9.30777 1.87903Z" fill="black"/>
</g>
<defs>
<clipPath id="clip0_3807_50425">
<rect width="104" height="32" fill="white"/>
</clipPath>
</defs>
</svg>
