<svg width="28" height="28" viewBox="0 0 28 28" fill="none" xmlns="http://www.w3.org/2000/svg">
<path d="M6.99992 12.8333V17.5M20.9999 10.5V15.1667M19.8333 4.66666C22.6901 4.66666 24.2352 5.10388 25.0041 5.44301C25.1064 5.48817 25.1576 5.51075 25.3054 5.65176C25.394 5.73628 25.5556 5.98428 25.5972 6.09943C25.6666 6.29152 25.6666 6.39652 25.6666 6.60652V19.1463C25.6666 20.2066 25.6666 20.7367 25.5076 21.0092C25.3459 21.2863 25.1899 21.4152 24.8872 21.5217C24.5896 21.6264 23.9889 21.511 22.7875 21.2802C21.9465 21.1186 20.9492 21 19.8333 21C16.3333 21 12.8333 23.3333 8.16659 23.3333C5.30976 23.3333 3.7646 22.8961 2.99578 22.557C2.8934 22.5118 2.8422 22.4892 2.69445 22.3482C2.60589 22.2637 2.44422 22.0157 2.40263 21.9006C2.33325 21.7085 2.33325 21.6035 2.33325 21.3935L2.33325 8.85365C2.33325 7.79342 2.33325 7.26331 2.49224 6.99082C2.65397 6.71365 2.80994 6.58479 3.11265 6.47827C3.41024 6.37355 4.01096 6.48897 5.21239 6.71981C6.05331 6.88139 7.05064 6.99999 8.16659 6.99999C11.6666 6.99999 15.1666 4.66666 19.8333 4.66666ZM16.9166 14C16.9166 15.6108 15.6107 16.9167 13.9999 16.9167C12.3891 16.9167 11.0833 15.6108 11.0833 14C11.0833 12.3892 12.3891 11.0833 13.9999 11.0833C15.6107 11.0833 16.9166 12.3892 16.9166 14Z" stroke="#6A11CD" stroke-width="2" stroke-linecap="round" stroke-linejoin="round"/>
</svg>
