<svg width="71" height="22" viewBox="0 0 71 22" fill="none" xmlns="http://www.w3.org/2000/svg">
<path d="M27.7213 12.3704H19.3964C19.7472 13.3226 20.5782 13.8218 21.8073 13.8218C22.902 13.8218 23.5166 13.5284 24.3053 12.916L26.8903 15.6129C25.7284 16.9279 24.0415 17.6073 21.6555 17.6073C17.2518 17.6073 14.4055 14.8666 14.4055 11.1712C14.4055 7.47581 17.319 4.7583 21.1978 4.7583C24.7456 4.7583 27.7909 6.97915 27.7909 11.1712C27.7909 11.5341 27.7462 12.0101 27.7263 12.373L27.7213 12.3704ZM19.3094 9.89996H23.1658C22.9692 8.85773 22.2452 8.24526 21.2376 8.24526C20.2299 8.24526 19.5059 8.85773 19.3094 9.89996Z" fill="#E6FF45"/>
<path d="M42.7265 4.98489V14.9079C42.7265 19.7125 40.0096 22.0002 35.4316 22.0002C33.0656 22.0002 30.9184 21.4778 29.4281 20.4588L31.0926 16.9692C32.0355 17.7181 33.6328 18.1916 34.9266 18.1916C36.9643 18.1916 37.7753 17.2626 37.7753 15.6079V15.3814C37.0314 16.2641 35.9342 16.6964 34.4663 16.6964C31.421 16.6964 28.7041 14.3855 28.7041 10.7159C28.7041 7.04619 31.421 4.75586 34.4663 4.75586C36.1084 4.75586 37.2703 5.27826 38.0142 6.3874V4.98232H42.724L42.7265 4.98489ZM37.8201 10.7184C37.8201 9.51665 36.9444 8.7472 35.7825 8.7472C34.6206 8.7472 33.7224 9.51665 33.7224 10.7184C33.7224 11.9202 34.6206 12.7128 35.7825 12.7128C36.9444 12.7128 37.8201 11.9202 37.8201 10.7184Z" fill="#E6FF45"/>
<path d="M56.3905 10.7183V17.3808H51.7902V15.7493C51.2204 16.9948 50.0809 17.6073 48.394 17.6073C45.4582 17.6073 43.948 15.8857 43.948 13.7549C43.948 11.3539 45.6995 10.0158 49.4241 10.0158H51.417C51.2627 9.0636 50.5636 8.56436 49.1604 8.56436C48.088 8.56436 46.8813 8.92721 46.0927 9.53968L44.5153 6.16338C45.9185 5.25754 48.0432 4.7583 49.9043 4.7583C54.0219 4.7583 56.388 6.59314 56.388 10.7183H56.3905ZM51.4394 13.3457V12.4836H50.2128C49.1604 12.4836 48.7001 12.8465 48.7001 13.5259C48.7001 14.092 49.138 14.5218 49.8819 14.5218C50.5611 14.5218 51.1756 14.1589 51.4369 13.3432L51.4394 13.3457Z" fill="#E6FF45"/>
<path d="M70.9354 12.3705H62.6106C62.9614 13.3226 63.7924 13.8219 65.0214 13.8219C66.1161 13.8219 66.7307 13.5285 67.5194 12.916L70.1044 15.613C68.9425 16.928 67.2556 17.6073 64.8697 17.6073C60.4659 17.6073 57.6196 14.8667 57.6196 11.1713C57.6196 7.47586 60.5331 4.75835 64.4119 4.75835C67.9598 4.75835 71.0051 6.97919 71.0051 11.1713C71.0051 11.5341 70.9603 12.0102 70.9404 12.373L70.9354 12.3705ZM62.4787 3.62348H59.411L62.215 -0.00244141H66.4222L69.2261 3.62348H66.1584L64.3173 1.87871L62.4762 3.62348H62.4787ZM62.5235 9.9H66.3799C66.1833 8.85778 65.4593 8.24531 64.4517 8.24531C63.444 8.24531 62.72 8.85778 62.5235 9.9Z" fill="#E6FF45"/>
<path d="M6.35435 1.29199H0V4.31059C0 4.31059 4.61275 1.75778 4.97102 2.66361C5.32929 3.56945 2.96072 4.7841 2.96072 4.7841C2.96072 4.7841 6.52104 3.26836 6.77731 4.10472C7.03357 4.94107 3.85142 6.49283 3.85142 6.49283C3.85142 6.49283 8.27259 4.70689 8.52139 5.67192C8.77019 6.63952 4.38883 8.36627 4.38883 8.36627C4.38883 8.36627 7.80485 7.2314 8.0014 8.21187C8.12082 8.80117 4.02558 11.0169 2.24417 11.7065C2.21681 12.0565 2.50044 15.3556 1.45548 15.2321C0.972807 15.1729 0.437888 14.4961 0.002488 13.7833V17.9599H4.16242V13.3973H6.35683C11.4075 13.3973 13.6492 11.6474 13.6492 7.36779C13.6492 3.08823 11.405 1.29199 6.35435 1.29199Z" fill="#E6FF45"/>
</svg>
