<svg width="133" height="19" viewBox="0 0 133 19" fill="none" xmlns="http://www.w3.org/2000/svg">
<path d="M2.59356 12.4805V5.48047H5.47356C6.09356 5.48047 6.62356 5.58047 7.06356 5.78047C7.51023 5.98047 7.85356 6.26713 8.09356 6.64047C8.33356 7.0138 8.45356 7.45714 8.45356 7.97047C8.45356 8.4838 8.33356 8.92714 8.09356 9.30047C7.85356 9.6738 7.51023 9.96047 7.06356 10.1605C6.62356 10.3605 6.09356 10.4605 5.47356 10.4605H3.31356L3.89356 9.85047V12.4805H2.59356ZM3.89356 9.99047L3.31356 9.36047H5.41356C5.9869 9.36047 6.4169 9.24047 6.70356 9.00047C6.9969 8.7538 7.14356 8.41047 7.14356 7.97047C7.14356 7.5238 6.9969 7.18047 6.70356 6.94047C6.4169 6.70047 5.9869 6.58047 5.41356 6.58047H3.31356L3.89356 5.94047V9.99047ZM12.0122 12.5505C11.4656 12.5505 10.9789 12.4338 10.5522 12.2005C10.1256 11.9605 9.7889 11.6338 9.54224 11.2205C9.29557 10.8071 9.17224 10.3371 9.17224 9.81047C9.17224 9.27714 9.29557 8.80714 9.54224 8.40047C9.7889 7.98714 10.1256 7.6638 10.5522 7.43047C10.9789 7.19714 11.4656 7.08047 12.0122 7.08047C12.5656 7.08047 13.0556 7.19714 13.4822 7.43047C13.9156 7.6638 14.2522 7.9838 14.4922 8.39047C14.7389 8.79714 14.8622 9.27047 14.8622 9.81047C14.8622 10.3371 14.7389 10.8071 14.4922 11.2205C14.2522 11.6338 13.9156 11.9605 13.4822 12.2005C13.0556 12.4338 12.5656 12.5505 12.0122 12.5505ZM12.0122 11.4805C12.3189 11.4805 12.5922 11.4138 12.8322 11.2805C13.0722 11.1471 13.2589 10.9538 13.3922 10.7005C13.5322 10.4471 13.6022 10.1505 13.6022 9.81047C13.6022 9.4638 13.5322 9.16714 13.3922 8.92047C13.2589 8.66714 13.0722 8.4738 12.8322 8.34047C12.5922 8.20714 12.3222 8.14047 12.0222 8.14047C11.7156 8.14047 11.4422 8.20714 11.2022 8.34047C10.9689 8.4738 10.7822 8.66714 10.6422 8.92047C10.5022 9.16714 10.4322 9.4638 10.4322 9.81047C10.4322 10.1505 10.5022 10.4471 10.6422 10.7005C10.7822 10.9538 10.9689 11.1471 11.2022 11.2805C11.4422 11.4138 11.7122 11.4805 12.0122 11.4805ZM17.0911 12.4805L15.1311 7.14047H16.3111L17.9911 11.8505H17.4311L19.1911 7.14047H20.2411L21.9511 11.8505H21.4011L23.1311 7.14047H24.2411L22.2711 12.4805H21.0711L19.5111 8.31047H19.8811L18.2911 12.4805H17.0911ZM27.464 12.5505C26.8707 12.5505 26.3507 12.4338 25.904 12.2005C25.464 11.9605 25.1207 11.6338 24.874 11.2205C24.634 10.8071 24.514 10.3371 24.514 9.81047C24.514 9.27714 24.6307 8.80714 24.864 8.40047C25.104 7.98714 25.4307 7.6638 25.844 7.43047C26.264 7.19714 26.7407 7.08047 27.274 7.08047C27.794 7.08047 28.2574 7.1938 28.664 7.42047C29.0707 7.64714 29.3907 7.96714 29.624 8.38047C29.8574 8.7938 29.974 9.28047 29.974 9.84047C29.974 9.8938 29.9707 9.9538 29.964 10.0205C29.964 10.0871 29.9607 10.1505 29.954 10.2105H25.504V9.38047H29.294L28.804 9.64047C28.8107 9.3338 28.7474 9.0638 28.614 8.83047C28.4807 8.59714 28.2974 8.4138 28.064 8.28047C27.8374 8.14714 27.574 8.08047 27.274 8.08047C26.9674 8.08047 26.6974 8.14714 26.464 8.28047C26.2374 8.4138 26.0574 8.60047 25.924 8.84047C25.7974 9.0738 25.734 9.35047 25.734 9.67047V9.87047C25.734 10.1905 25.8074 10.4738 25.954 10.7205C26.1007 10.9671 26.3074 11.1571 26.574 11.2905C26.8407 11.4238 27.1474 11.4905 27.494 11.4905C27.794 11.4905 28.064 11.4438 28.304 11.3505C28.544 11.2571 28.7574 11.1105 28.944 10.9105L29.614 11.6805C29.374 11.9605 29.0707 12.1771 28.704 12.3305C28.344 12.4771 27.9307 12.5505 27.464 12.5505ZM31.1747 12.4805V7.14047H32.3647V8.61047L32.2247 8.18047C32.3847 7.82047 32.6347 7.54714 32.9747 7.36047C33.3214 7.1738 33.7514 7.08047 34.2647 7.08047V8.27047C34.2114 8.25714 34.1614 8.25047 34.1147 8.25047C34.0681 8.2438 34.0214 8.24047 33.9747 8.24047C33.5014 8.24047 33.1247 8.38047 32.8447 8.66047C32.5647 8.9338 32.4247 9.3438 32.4247 9.89047V12.4805H31.1747ZM37.7863 12.5505C37.193 12.5505 36.673 12.4338 36.2263 12.2005C35.7863 11.9605 35.443 11.6338 35.1963 11.2205C34.9563 10.8071 34.8363 10.3371 34.8363 9.81047C34.8363 9.27714 34.953 8.80714 35.1863 8.40047C35.4263 7.98714 35.753 7.6638 36.1663 7.43047C36.5863 7.19714 37.063 7.08047 37.5963 7.08047C38.1163 7.08047 38.5796 7.1938 38.9863 7.42047C39.393 7.64714 39.713 7.96714 39.9463 8.38047C40.1796 8.7938 40.2963 9.28047 40.2963 9.84047C40.2963 9.8938 40.293 9.9538 40.2863 10.0205C40.2863 10.0871 40.283 10.1505 40.2763 10.2105H35.8263V9.38047H39.6163L39.1263 9.64047C39.133 9.3338 39.0696 9.0638 38.9363 8.83047C38.803 8.59714 38.6196 8.4138 38.3863 8.28047C38.1596 8.14714 37.8963 8.08047 37.5963 8.08047C37.2896 8.08047 37.0196 8.14714 36.7863 8.28047C36.5596 8.4138 36.3796 8.60047 36.2463 8.84047C36.1196 9.0738 36.0563 9.35047 36.0563 9.67047V9.87047C36.0563 10.1905 36.1296 10.4738 36.2763 10.7205C36.423 10.9671 36.6296 11.1571 36.8963 11.2905C37.163 11.4238 37.4696 11.4905 37.8163 11.4905C38.1163 11.4905 38.3863 11.4438 38.6263 11.3505C38.8663 11.2571 39.0796 11.1105 39.2663 10.9105L39.9363 11.6805C39.6963 11.9605 39.393 12.1771 39.0263 12.3305C38.6663 12.4771 38.253 12.5505 37.7863 12.5505ZM43.757 12.5505C43.2437 12.5505 42.7803 12.4371 42.367 12.2105C41.9603 11.9771 41.6403 11.6571 41.407 11.2505C41.1737 10.8438 41.057 10.3638 41.057 9.81047C41.057 9.25714 41.1737 8.77714 41.407 8.37047C41.6403 7.9638 41.9603 7.64714 42.367 7.42047C42.7803 7.1938 43.2437 7.08047 43.757 7.08047C44.2037 7.08047 44.6037 7.18047 44.957 7.38047C45.3103 7.5738 45.5903 7.87047 45.797 8.27047C46.0037 8.67047 46.107 9.1838 46.107 9.81047C46.107 10.4305 46.007 10.9438 45.807 11.3505C45.607 11.7505 45.3303 12.0505 44.977 12.2505C44.6237 12.4505 44.217 12.5505 43.757 12.5505ZM43.907 11.4805C44.207 11.4805 44.4737 11.4138 44.707 11.2805C44.947 11.1471 45.137 10.9538 45.277 10.7005C45.4237 10.4471 45.497 10.1505 45.497 9.81047C45.497 9.4638 45.4237 9.16714 45.277 8.92047C45.137 8.66714 44.947 8.4738 44.707 8.34047C44.4737 8.20714 44.207 8.14047 43.907 8.14047C43.607 8.14047 43.337 8.20714 43.097 8.34047C42.8637 8.4738 42.6737 8.66714 42.527 8.92047C42.387 9.16714 42.317 9.4638 42.317 9.81047C42.317 10.1505 42.387 10.4471 42.527 10.7005C42.6737 10.9538 42.8637 11.1471 43.097 11.2805C43.337 11.4138 43.607 11.4805 43.907 11.4805ZM45.527 12.4805V11.2205L45.577 9.80047L45.477 8.38047V5.06047H46.717V12.4805H45.527ZM54.0859 12.5505C53.6326 12.5505 53.2292 12.4505 52.8759 12.2505C52.5226 12.0505 52.2426 11.7505 52.0359 11.3505C51.8359 10.9438 51.7359 10.4305 51.7359 9.81047C51.7359 9.1838 51.8392 8.67047 52.0459 8.27047C52.2592 7.87047 52.5426 7.5738 52.8959 7.38047C53.2559 7.18047 53.6526 7.08047 54.0859 7.08047C54.6126 7.08047 55.0759 7.1938 55.4759 7.42047C55.8826 7.64714 56.2026 7.9638 56.4359 8.37047C56.6759 8.77714 56.7959 9.25714 56.7959 9.81047C56.7959 10.3638 56.6759 10.8438 56.4359 11.2505C56.2026 11.6571 55.8826 11.9771 55.4759 12.2105C55.0759 12.4371 54.6126 12.5505 54.0859 12.5505ZM51.1259 12.4805V5.06047H52.3759V8.38047L52.2759 9.80047L52.3159 11.2205V12.4805H51.1259ZM53.9459 11.4805C54.2459 11.4805 54.5126 11.4138 54.7459 11.2805C54.9859 11.1471 55.1759 10.9538 55.3159 10.7005C55.4559 10.4471 55.5259 10.1505 55.5259 9.81047C55.5259 9.4638 55.4559 9.16714 55.3159 8.92047C55.1759 8.66714 54.9859 8.4738 54.7459 8.34047C54.5126 8.20714 54.2459 8.14047 53.9459 8.14047C53.6459 8.14047 53.3759 8.20714 53.1359 8.34047C52.8959 8.4738 52.7059 8.66714 52.5659 8.92047C52.4259 9.16714 52.3559 9.4638 52.3559 9.81047C52.3559 10.1505 52.4259 10.4471 52.5659 10.7005C52.7059 10.9538 52.8959 11.1471 53.1359 11.2805C53.3759 11.4138 53.6459 11.4805 53.9459 11.4805ZM58.2749 14.4905C58.0149 14.4905 57.7549 14.4471 57.4949 14.3605C57.2349 14.2738 57.0182 14.1538 56.8449 14.0005L57.3449 13.0805C57.4716 13.1938 57.6149 13.2838 57.7749 13.3505C57.9349 13.4171 58.0982 13.4505 58.2649 13.4505C58.4916 13.4505 58.6749 13.3938 58.8149 13.2805C58.9549 13.1671 59.0849 12.9771 59.2049 12.7105L59.5149 12.0105L59.6149 11.8605L61.6349 7.14047H62.8349L60.3349 12.9105C60.1682 13.3105 59.9816 13.6271 59.7749 13.8605C59.5749 14.0938 59.3482 14.2571 59.0949 14.3505C58.8482 14.4438 58.5749 14.4905 58.2749 14.4905ZM59.3749 12.6705L56.9649 7.14047H58.2649L60.2249 11.7505L59.3749 12.6705Z" fill="white"/>
<path d="M78.4986 7.9061L77.1366 3.48047H76.7654L75.5239 7.91335L76.9413 7.49128L78.4986 7.9061Z" fill="white"/>
<path d="M75.5166 10.8895L76.881 15.3152H77.2498L78.4912 10.8799L77.0738 11.3044L75.5166 10.8895Z" fill="white"/>
<path d="M78.5033 10.8849L82.9243 9.52222V9.1508L78.4937 7.91113L78.9155 9.32927L78.5033 10.8849Z" fill="white"/>
<path d="M75.5167 7.91113L71.0933 9.2738V9.64523L75.5239 10.8849L75.102 9.46676L75.5167 7.91113Z" fill="white"/>
<path d="M109.768 5.91895H108.522V12.8721H109.768V5.91895Z" fill="white"/>
<path d="M104.036 8.94091H99.0463V5.91895H97.8V12.8721H99.0463V10.1854H104.036V12.8721H105.28V5.91895H104.036V8.94091Z" fill="white"/>
<path d="M129.996 5.91897H126.392C125.81 5.92024 125.252 6.15224 124.841 6.56407C124.43 6.97591 124.199 7.534 124.198 8.11611V12.877H125.442V10.1854H130.96V12.877H132.204V8.11611C132.203 7.82665 132.146 7.54011 132.035 7.27289C131.924 7.00568 131.761 6.76307 131.556 6.55895C131.35 6.35483 131.107 6.19321 130.839 6.08339C130.572 5.97358 130.285 5.9177 129.996 5.91897ZM125.442 8.93854V8.11611C125.446 7.86525 125.547 7.62573 125.724 7.44833C125.902 7.27093 126.141 7.16961 126.392 7.16587H129.996C130.246 7.16961 130.486 7.27093 130.663 7.44833C130.84 7.62573 130.942 7.86525 130.945 8.11611V8.93854H125.442Z" fill="white"/>
<path d="M94.4227 5.91895L91.5131 8.94091H88.8398V5.91895H87.5935V12.8721H88.8398V10.1854H91.6481L94.2178 12.8529H95.816L92.5786 9.49323L96.0209 5.91895H94.4227Z" fill="white"/>
<path d="M112.991 7.16594H119.97V7.45054C119.968 7.55782 119.933 7.66191 119.87 7.74836C119.806 7.83481 119.717 7.89932 119.616 7.9329L114.127 9.73933C113.794 9.84796 113.504 10.0594 113.299 10.3432C113.093 10.627 112.983 10.9687 112.984 11.319V12.3465V12.865H121.11V11.6205H114.119V11.3263C114.121 11.2189 114.156 11.1147 114.219 11.0281C114.283 10.9416 114.372 10.8772 114.474 10.8439L119.963 9.03749C120.295 8.92822 120.585 8.71661 120.79 8.43292C120.995 8.14923 121.105 7.80794 121.105 7.45775V7.17318V5.92627H112.979L112.991 7.16594Z" fill="white"/>
</svg>
