<svg width="99" height="130" viewBox="0 0 99 130" fill="none" xmlns="http://www.w3.org/2000/svg">
<path d="M10.6258 105.946L7.12546 51.5539C7.12546 51.5539 -5.21791 18.506 3.79091 17.013C12.7997 15.5108 18.8056 40.3751 18.8056 40.3751L18.7227 41.0386L19.478 40.7437C19.478 40.7437 20.8229 33.1038 25.6497 31.0763C30.4397 29.0673 34.502 31.9518 37.1733 36.5505L36.6206 35.0852C36.6206 35.0852 38.9787 27.6941 44.0358 26.3394C49.1298 24.9662 52.7959 28.4959 54.8041 33.5277C54.2606 26.5698 52.7223 -0.146845 60.8468 0.000607978C69.7358 0.157277 75.0877 57.7745 75.5851 63.3409H75.622C77.9617 61.0554 90.8762 37.7209 97.7111 45.2318C104.555 52.7427 81.9134 105.964 81.9134 105.964" fill="black"/>
<path d="M61.7864 36.5136C61.7864 36.5136 61.7219 36.5136 61.6851 36.5136C58.8387 36.1541 55.366 35.9698 55.3292 35.9698C54.887 35.9422 54.5462 35.5736 54.5738 35.1312C54.6015 34.6888 54.9791 34.3571 55.4121 34.3755C55.4489 34.3755 58.9769 34.569 61.8785 34.9284C62.3207 34.9837 62.6247 35.38 62.5694 35.8224C62.5141 36.2279 62.1733 36.5228 61.7772 36.5228L61.7864 36.5136Z" fill="#FF5058"/>
<path d="M49.609 84.9426C49.5537 84.9426 49.4892 84.9426 49.434 84.9241C49.001 84.832 48.7339 84.3988 48.826 83.9657C53.5239 62.8062 73.7615 62.5205 73.9641 62.5205H75.6038C76.0459 62.5205 76.4052 62.8799 76.4052 63.3223C76.4052 63.7646 76.0459 64.1241 75.6038 64.1241H73.9641C73.1904 64.1241 54.8043 64.4282 50.3827 84.3067C50.2998 84.6753 49.9682 84.9334 49.5998 84.9334L49.609 84.9426Z" fill="#FF5058"/>
<path d="M13.5273 43.8587C13.2049 43.8587 12.901 43.6651 12.7812 43.3518C12.6246 42.9371 12.8273 42.4763 13.2326 42.3196L19.174 40.0065C19.5885 39.8406 20.0491 40.0525 20.2057 40.458C20.3623 40.8727 20.1596 41.3335 19.7543 41.4902L13.8129 43.8034C13.7208 43.8402 13.6195 43.8587 13.5273 43.8587Z" fill="#FF5058"/>
<path d="M34.5848 59.9402C34.4098 59.9402 34.2348 59.9402 34.0598 59.9126C29.5922 59.4702 25.6497 53.6458 24.5535 51.8671C24.3233 51.4893 24.4338 51.0009 24.8115 50.7705C25.1891 50.5401 25.6773 50.6507 25.9168 51.0285C27.8881 54.208 31.2503 58.0325 34.2256 58.3182C35.4415 58.4288 36.5285 57.968 37.5325 56.8898C40.95 53.2219 40.1578 46.2178 38.2786 40.8819C36.9706 37.1679 35.1652 34.4308 32.9084 32.7259C32.5583 32.4587 32.4846 31.961 32.7518 31.6016C33.0189 31.2514 33.5163 31.1776 33.8756 31.4449C36.3811 33.3341 38.3708 36.3293 39.7893 40.3382C41.8251 46.1073 42.608 53.7748 38.7024 57.968C37.4957 59.2674 36.1139 59.9218 34.6033 59.9218L34.5848 59.9402Z" fill="#FF5058"/>
<path d="M50.4285 56.263C50.3548 56.263 50.2811 56.263 50.2075 56.263C45.9333 56.051 41.5487 49.987 40.1485 46.7891C39.9735 46.3836 40.1485 45.9136 40.563 45.7385C40.9683 45.5634 41.4381 45.7385 41.6132 46.1532C42.8751 49.0378 46.965 54.512 50.2811 54.6687C51.5708 54.724 52.6301 53.9682 53.542 52.3463C56.72 46.6509 56.7108 38.9741 53.5052 32.7719C53.3025 32.3756 53.4591 31.8964 53.846 31.6937C54.2421 31.4909 54.7211 31.6476 54.9237 32.0346C58.3688 38.6977 58.3688 46.9827 54.9329 53.1296C53.5052 55.6916 51.7273 56.2722 50.4193 56.2722L50.4285 56.263Z" fill="#FF5058"/>
<path d="M1.79187 106.001H89.3469L82.4475 129.879L8.25833 129.538L1.79187 106.001Z" fill="#FF5058"/>
</svg>
