<svg width="134" height="127" viewBox="0 0 134 127" fill="none" xmlns="http://www.w3.org/2000/svg">
<path d="M107.022 62.8854L76.6346 27.5052C76.6346 27.5052 69.8493 -0.577825 61.9299 0.00907251C52.7884 0.684005 60.7176 28.5029 60.7176 28.5029C60.7176 28.5029 42.0141 -1.63424 23.2423 17.7529L23.956 18.1344C17.0729 17.1367 9.93574 18.5844 3.90331 25.0892C0.49113 28.7671 -2.88195 36.4945 8.36163 37.8444C-0.0368313 43.4199 -2.14869 53.7004 2.80826 56.5762C11.9693 61.8974 18.6666 47.313 28.8738 57.8087C36.7639 65.9177 27.769 74.056 22.3916 73.0876C13.7292 71.5225 10.0042 52.4581 2.52475 62.4452C-6.74387 74.8287 16.1344 105.817 49.3567 103.244" fill="black"/>
<path d="M42.9932 106.512L118.118 51.8091L127.117 76.6078L63.2472 122.667L42.9932 106.512Z" fill="#FF5058"/>
<path d="M40.9092 40.9061C41.1928 40.9061 41.4665 40.7594 41.6132 40.4953C41.8283 40.104 41.6914 39.6149 41.3003 39.3997C34.7888 35.7805 18.3439 28.4443 6.16172 38.4802C5.81952 38.7639 5.77062 39.2726 6.05415 39.6149C6.33769 39.9573 6.8461 40.0062 7.18829 39.7225C18.6079 30.3126 34.3098 37.3456 40.5279 40.8083C40.655 40.8767 40.7821 40.9061 40.919 40.9061H40.9092Z" fill="#FF5058"/>
<path d="M51.1165 33.3451C51.3218 33.3451 51.5174 33.2669 51.6738 33.1202C51.9965 32.8072 51.9964 32.2985 51.6934 31.9855C43.8424 23.9059 34.1045 18.9368 22.7729 17.1957C22.333 17.1272 21.9223 17.4304 21.8539 17.8706C21.7854 18.3108 22.0885 18.7216 22.5285 18.7901C33.5081 20.4725 42.9331 25.2949 50.5397 33.1202C50.6961 33.2865 50.9014 33.3647 51.1165 33.3647V33.3451Z" fill="#FF5058"/>
</svg>
