<svg width="110" height="125" viewBox="0 0 110 125" fill="none" xmlns="http://www.w3.org/2000/svg">
<path d="M25.1945 31.9793C25.8804 31.7846 26.5778 31.6116 27.2637 31.4386C26.6578 31.4278 26.0519 31.3197 25.4574 31.0926C14.2651 26.8865 18.5751 -3.5405 33.8488 0.341265C39.7823 1.84423 42.0802 8.87251 42.0802 8.87251C44.6868 3.39046 49.0426 -0.350722 54.8617 1.04412C61.0238 2.52546 63.6189 13.3922 63.6189 13.3922L62.6243 16.0413C65.8254 10.9702 70.6956 7.51011 76.5033 8.9482C86.8039 11.4892 86.5753 32.8767 86.5753 32.8767C86.5753 32.8767 95.1267 3.0661 105.702 4.73125C116.277 6.39641 101.78 43.0731 101.78 43.0731L97.6647 94.4875H9.24624L8.21729 83.5991C-6.62202 65.3689 1.84941 38.4777 25.183 31.9793H25.1945Z" fill="black"/>
<path d="M3.90747 92.5078H104.993L97.0247 125L11.3729 124.535L3.90747 92.5078Z" fill="#FF5058"/>
<path d="M65.9625 40.813C65.0822 40.813 64.179 40.6617 63.2529 40.3265C57.0451 38.0882 56.4392 29.1461 59.0344 21.4799C61.8011 13.3163 68.3519 6.01775 76.7433 8.08297C77.2463 8.20191 77.5435 8.68849 77.4178 9.16424C77.292 9.64 76.7661 9.92113 76.2745 9.80219C69.0721 8.02891 63.3215 14.6571 60.8293 22.0206C58.5542 28.7353 58.8744 36.8448 63.9275 38.6721C71.1757 41.2888 77.4063 28.6163 77.4749 28.4866C77.6921 28.0433 78.2409 27.8486 78.7211 28.054C79.1898 28.2595 79.3956 28.7893 79.1784 29.2326C78.9269 29.7624 73.485 40.8238 65.9625 40.8238V40.813Z" fill="#FF5058"/>
<path d="M92.9087 38.1101C92.7715 38.1101 92.6343 38.0776 92.4971 38.0235C87.6383 35.7853 82.7681 33.8931 78.0237 32.4117C77.5321 32.2604 77.2691 31.7522 77.4292 31.2872C77.5892 30.8223 78.1265 30.5628 78.6181 30.725C83.4426 32.2279 88.3928 34.1526 93.3316 36.4233C93.8004 36.6395 93.9947 37.1693 93.7661 37.6126C93.606 37.9262 93.2745 38.1101 92.9201 38.1101H92.9087Z" fill="#FF5058"/>
<path d="M47.5677 36.9316C46.1386 36.9316 44.7667 36.4775 43.4634 35.5801C37.3128 31.3631 38.0673 21.2748 38.6732 17.1336C39.3249 12.6787 40.7082 8.84023 42.7775 5.73698C43.0518 5.3261 43.6349 5.19633 44.0693 5.45584C44.5038 5.71534 44.641 6.2668 44.3666 6.67768C42.4459 9.56467 41.1541 13.1653 40.5367 17.3714C39.9765 21.1991 39.2448 30.4872 44.5724 34.1419C45.91 35.061 47.259 35.3421 48.7109 35.0178C52.2893 34.2068 55.8447 29.7087 57.994 25.7621C58.2341 25.3296 58.7943 25.1566 59.2631 25.3729C59.7204 25.5999 59.9033 26.1297 59.6746 26.573C58.5428 28.6599 54.4385 35.5584 49.1567 36.7478C48.6309 36.8667 48.105 36.9316 47.5791 36.9316H47.5677Z" fill="#FF5058"/>
<path d="M27.7779 31.2222C26.9547 31.2222 26.1202 31.0816 25.2856 30.7681C24.8055 30.5843 24.5654 30.0761 24.7597 29.6111C24.9541 29.157 25.5028 28.9299 25.983 29.1137C31.8364 31.3195 38.41 21.6422 38.4786 21.5448C38.753 21.134 39.3361 21.0042 39.7705 21.2745C40.2049 21.534 40.3421 22.0855 40.0563 22.4964C39.7934 22.8964 34.1343 31.2222 27.7779 31.2222Z" fill="#FF5058"/>
<path d="M61.2863 74.3756C60.8519 74.3756 60.4632 74.0945 60.3717 73.6836C55.1814 51.6148 33.5969 51.2796 32.6823 51.2796C32.1679 51.2796 31.7449 50.8796 31.7449 50.393C31.7449 49.9064 32.1679 49.5063 32.6823 49.5063C32.9224 49.5063 56.679 49.8199 62.2009 73.3051C62.3152 73.7809 61.9951 74.2567 61.4921 74.3648C61.4235 74.3756 61.3549 74.3864 61.2863 74.3864V74.3756Z" fill="#FF5058"/>
<path d="M27.7212 55.3564C27.4468 55.3564 27.1725 55.2483 26.9896 55.032C26.658 54.6536 26.7266 54.0913 27.1267 53.7886C31.6311 50.3285 42.9607 40.1429 41.3716 34.6933C41.0172 33.4931 40.3312 32.6281 39.2451 32.055C36.73 30.7251 32.0884 30.9954 25.4576 32.8444C24.9546 32.9849 24.4401 32.7146 24.2915 32.2388C24.1429 31.7631 24.4287 31.2765 24.9317 31.1359C32.1685 29.1248 37.153 28.9194 40.1712 30.5088C41.6917 31.309 42.7092 32.5632 43.1893 34.2284C45.4186 41.9054 29.0245 54.632 28.3157 55.1726C28.1442 55.3024 27.927 55.3672 27.7212 55.3672V55.3564Z" fill="#FF5058"/>
</svg>
