<svg width="24" height="24" viewBox="0 0 24 24" fill="none" xmlns="http://www.w3.org/2000/svg">
<path d="M7.66675 14.1667C7.66675 14.1667 9.29175 16.3333 12.0001 16.3333C14.7084 16.3333 16.3334 14.1667 16.3334 14.1667M15.2501 8.74999H15.2609M8.75008 8.74999H8.76091M22.8334 12C22.8334 17.9831 17.9832 22.8333 12.0001 22.8333C6.017 22.8333 1.16675 17.9831 1.16675 12C1.16675 6.0169 6.017 1.16666 12.0001 1.16666C17.9832 1.16666 22.8334 6.0169 22.8334 12ZM15.7917 8.74999C15.7917 9.04914 15.5492 9.29166 15.2501 9.29166C14.9509 9.29166 14.7084 9.04914 14.7084 8.74999C14.7084 8.45084 14.9509 8.20832 15.2501 8.20832C15.5492 8.20832 15.7917 8.45084 15.7917 8.74999ZM9.29175 8.74999C9.29175 9.04914 9.04924 9.29166 8.75008 9.29166C8.45093 9.29166 8.20841 9.04914 8.20841 8.74999C8.20841 8.45084 8.45093 8.20832 8.75008 8.20832C9.04924 8.20832 9.29175 8.45084 9.29175 8.74999Z" stroke="#6A11CD" stroke-width="2" stroke-linecap="round" stroke-linejoin="round"/>
</svg>
