<svg width="30" height="30" viewBox="0 0 30 30" fill="none" xmlns="http://www.w3.org/2000/svg">
<circle cx="14.76" cy="14.7402" r="14.2402" stroke="white"/>
<path d="M12.9527 20.0469C17.351 20.0469 19.7573 16.4021 19.7573 13.2423C19.7573 13.1398 19.7551 13.0351 19.7505 12.9326C20.2186 12.5941 20.6226 12.1748 20.9434 11.6944C20.5075 11.8884 20.0446 12.015 19.5706 12.0701C20.0697 11.771 20.4433 11.301 20.6224 10.7474C20.1529 11.0256 19.6394 11.2219 19.1041 11.3278C18.7433 10.9445 18.2664 10.6907 17.747 10.6057C17.2275 10.5206 16.6946 10.6091 16.2304 10.8573C15.7663 11.1056 15.3969 11.4998 15.1793 11.9791C14.9617 12.4583 14.908 12.9959 15.0266 13.5087C14.076 13.461 13.146 13.2141 12.2969 12.7839C11.4478 12.3537 10.6986 11.7498 10.0978 11.0115C9.79248 11.538 9.69905 12.1609 9.83651 12.7537C9.97397 13.3466 10.332 13.8649 10.8378 14.2032C10.4581 14.1911 10.0867 14.0889 9.75422 13.9049V13.9345C9.75388 14.487 9.94487 15.0225 10.2947 15.45C10.6446 15.8776 11.1317 16.1708 11.6733 16.2798C11.3215 16.3761 10.9523 16.3901 10.5942 16.3208C10.747 16.7959 11.0444 17.2115 11.4447 17.5095C11.8451 17.8074 12.3285 17.973 12.8275 17.983C11.9804 18.6485 10.9339 19.0094 9.85668 19.0077C9.66565 19.0074 9.4748 18.9957 9.28516 18.9726C10.3795 19.6747 11.6525 20.0476 12.9527 20.0469Z" fill="white"/>
</svg>
