<svg width="51" height="51" viewBox="0 0 51 51" fill="none" xmlns="http://www.w3.org/2000/svg">
<circle cx="25.5" cy="25.5" r="25.5" fill="#D9CFF1"/>
<path d="M35.0167 36.9563H29.3124M32.1645 39.8084V34.1041M25.7329 40.2505C23.1375 40.2505 20.5563 39.5945 18.5883 38.2825C15.1372 35.9723 15.1372 32.2075 18.5883 29.9115C22.51 27.2875 28.9416 27.2875 32.8633 29.9115M25.9754 24.6493C25.8328 24.635 25.6616 24.635 25.5048 24.6493C23.8679 24.5937 22.317 23.9032 21.1804 22.724C20.0438 21.5448 19.4108 19.9695 19.4154 18.3318C19.4132 17.5008 19.575 16.6776 19.8915 15.9093C20.208 15.141 20.673 14.4428 21.2599 13.8546C21.8468 13.2663 22.544 12.7997 23.3116 12.4815C24.0792 12.1632 24.902 11.9996 25.7329 12C29.2268 12 32.0647 14.8379 32.0647 18.3318C32.0647 21.7543 29.3552 24.5352 25.9754 24.6493Z" stroke="black" stroke-width="3" stroke-linecap="round" stroke-linejoin="round"/>
</svg>
