<svg width="51" height="51" viewBox="0 0 51 51" fill="none" xmlns="http://www.w3.org/2000/svg">
<circle cx="25.5" cy="25.5" r="25.5" fill="#D9CFF1"/>
<path d="M23.3333 20.1667V18.875M23.3333 25.9792V24.6875M23.3333 31.7917V30.5M17.1333 15H34.7C36.1468 15 36.8702 15 37.4228 15.2816C37.9089 15.5292 38.3041 15.9244 38.5518 16.4105C38.8333 16.9631 38.8333 17.6865 38.8333 19.1333V20.8125C36.3365 20.8125 34.3125 22.8365 34.3125 25.3333C34.3125 27.8301 36.3365 29.8542 38.8333 29.8542V31.5333C38.8333 32.9801 38.8333 33.7035 38.5518 34.2561C38.3041 34.7422 37.9089 35.1374 37.4228 35.3851C36.8702 35.6667 36.1468 35.6667 34.7 35.6667H17.1333C15.6865 35.6667 14.9631 35.6667 14.4105 35.3851C13.9244 35.1374 13.5292 34.7422 13.2816 34.2561C13 33.7035 13 32.9801 13 31.5333V29.8542C15.4968 29.8542 17.5208 27.8301 17.5208 25.3333C17.5208 22.8365 15.4968 20.8125 13 20.8125V19.1333C13 17.6865 13 16.9631 13.2816 16.4105C13.5292 15.9244 13.9244 15.5292 14.4105 15.2816C14.9631 15 15.6865 15 17.1333 15Z" stroke="black" stroke-width="3" stroke-linecap="round" stroke-linejoin="round"/>
</svg>
