<svg width="51" height="51" viewBox="0 0 51 51" fill="none" xmlns="http://www.w3.org/2000/svg">
<circle cx="25.5" cy="25.5" r="25.5" fill="#D9CFF1"/>
<path d="M13 18.1333C13 17.3866 13 17.0132 13.1453 16.728C13.2732 16.4771 13.4771 16.2732 13.728 16.1453C14.0132 16 14.3866 16 15.1333 16H37.5333C38.2801 16 38.6534 16 38.9387 16.1453C39.1895 16.2732 39.3935 16.4771 39.5213 16.728C39.6667 17.0132 39.6667 17.3866 39.6667 18.1333V19.0259C39.6667 19.3843 39.6667 19.5635 39.6229 19.7301C39.5841 19.8777 39.5202 20.0176 39.434 20.1437C39.3368 20.2859 39.2014 20.4033 38.9305 20.638L30.4028 28.0287C30.132 28.2634 29.9966 28.3808 29.8993 28.523C29.8132 28.649 29.7493 28.7889 29.7105 28.9366C29.6667 29.1032 29.6667 29.2824 29.6667 29.6408V36.6112C29.6667 36.8719 29.6667 37.0023 29.6246 37.115C29.5875 37.2146 29.527 37.3039 29.4483 37.3754C29.3593 37.4563 29.2382 37.5047 28.9961 37.6015L24.4628 39.4149C23.9728 39.6109 23.7277 39.7089 23.531 39.668C23.359 39.6323 23.2081 39.5301 23.111 39.3837C23 39.2162 23 38.9523 23 38.4245V29.6408C23 29.2824 23 29.1032 22.9562 28.9366C22.9174 28.7889 22.8535 28.649 22.7673 28.523C22.6701 28.3808 22.5347 28.2634 22.2639 28.0287L13.7361 20.638C13.4653 20.4033 13.3299 20.2859 13.2327 20.1437C13.1465 20.0176 13.0826 19.8777 13.0438 19.7301C13 19.5635 13 19.3843 13 19.0259V18.1333Z" stroke="black" stroke-width="3" stroke-linecap="round" stroke-linejoin="round"/>
</svg>
