<svg width="51" height="51" viewBox="0 0 51 51" fill="none" xmlns="http://www.w3.org/2000/svg">
<circle cx="25.5" cy="25.5" r="25.5" fill="#D9CFF1"/>
<path d="M28.5 21H24.8542C23.646 21 22.6667 22.0074 22.6667 23.25C22.6667 24.4926 23.646 25.5 24.8542 25.5H26.3125C27.5206 25.5 28.5 26.5074 28.5 27.75C28.5 28.9926 27.5206 30 26.3125 30H22.6667M25.5833 19.5V21M25.5833 30V31.5M34.3333 25.5H34.3479M16.8333 25.5H16.8479M11 19.8L11 31.2C11 32.8802 11 33.7202 11.3179 34.362C11.5975 34.9265 12.0437 35.3854 12.5925 35.673C13.2164 36 14.0332 36 15.6667 36L35.5 36C37.1335 36 37.9502 36 38.5741 35.673C39.1229 35.3854 39.5691 34.9265 39.8488 34.362C40.1667 33.7202 40.1667 32.8802 40.1667 31.2V19.8C40.1667 18.1198 40.1667 17.2798 39.8488 16.638C39.5691 16.0735 39.1229 15.6146 38.5741 15.327C37.9502 15 37.1335 15 35.5 15L15.6667 15C14.0332 15 13.2164 15 12.5925 15.327C12.0437 15.6146 11.5975 16.0735 11.3179 16.638C11 17.2798 11 18.1198 11 19.8ZM35.0625 25.5C35.0625 25.9142 34.736 26.25 34.3333 26.25C33.9306 26.25 33.6042 25.9142 33.6042 25.5C33.6042 25.0858 33.9306 24.75 34.3333 24.75C34.736 24.75 35.0625 25.0858 35.0625 25.5ZM17.5625 25.5C17.5625 25.9142 17.236 26.25 16.8333 26.25C16.4306 26.25 16.1042 25.9142 16.1042 25.5C16.1042 25.0858 16.4306 24.75 16.8333 24.75C17.236 24.75 17.5625 25.0858 17.5625 25.5Z" stroke="black" stroke-width="3" stroke-linecap="round" stroke-linejoin="round"/>
</svg>
